<?xml version="1.0" encoding="UTF-8"?>
<svg xmlns="http://www.w3.org/2000/svg" id="Layer_1" data-name="Layer 1" width="152.36" height="49.34" viewBox="0 0 152.36 49.34">
  <title>logistics_logo_1</title>
  <path d="M457.06,348.52v-14h2.64v11.6h6.4v2.4Z" transform="translate(-398.42 -322.09)"></path>
  <path d="M472.86,348.8a6,6,0,0,1-4.2-1.45,5.39,5.39,0,0,1-1.56-4.15v-3.36a5.38,5.38,0,0,1,1.56-4.15,6.81,6.81,0,0,1,8.4,0,5.38,5.38,0,0,1,1.56,4.15v3.36a5.39,5.39,0,0,1-1.56,4.15A6,6,0,0,1,472.86,348.8Zm0-2.36a3,3,0,0,0,2.3-.86,3.19,3.19,0,0,0,.82-2.3v-3.52a3.18,3.18,0,0,0-.82-2.3,3.49,3.49,0,0,0-4.59,0,3.18,3.18,0,0,0-.83,2.3v3.52a3.2,3.2,0,0,0,.83,2.3A3,3,0,0,0,472.86,346.44Z" transform="translate(-398.42 -322.09)"></path>
  <path d="M485.78,348.8a5.32,5.32,0,0,1-2.61-.65,4.79,4.79,0,0,1-1.86-1.9,6.25,6.25,0,0,1-.69-3.05v-3.36a5.47,5.47,0,0,1,1.52-4.15,5.71,5.71,0,0,1,4.12-1.45,5.46,5.46,0,0,1,4,1.37,4.93,4.93,0,0,1,1.41,3.71v.08h-2.6v-.16a2.82,2.82,0,0,0-.31-1.34,2.3,2.3,0,0,0-.93-.95,3.05,3.05,0,0,0-1.56-.35,2.83,2.83,0,0,0-2.2.86,3.3,3.3,0,0,0-.8,2.34v3.44a3.42,3.42,0,0,0,.8,2.35,2.86,2.86,0,0,0,2.24.89,2.66,2.66,0,0,0,2.1-.76,2.83,2.83,0,0,0,.66-1.92v-.2h-3.32v-2.24h5.92v7.16h-2.44v-1.34h-.36a3,3,0,0,1-.45.72,2.5,2.5,0,0,1-.93.64A4.56,4.56,0,0,1,485.78,348.8Z" transform="translate(-398.42 -322.09)"></path>
  <path d="M494.18,348.52v-14h2.64v14Z" transform="translate(-398.42 -322.09)"></path>
  <path d="M504.32,348.8a6.79,6.79,0,0,1-2.86-.58,4.57,4.57,0,0,1-1.94-1.66,4.66,4.66,0,0,1-.7-2.6v-.56h2.6V344a2.29,2.29,0,0,0,.78,1.89,3.29,3.29,0,0,0,2.12.63,3.2,3.2,0,0,0,2-.54,1.69,1.69,0,0,0,.67-1.38,1.33,1.33,0,0,0-.33-.94,2.35,2.35,0,0,0-1-.59,10.8,10.8,0,0,0-1.53-.43l-.46-.1a12.55,12.55,0,0,1-2.47-.81,3.94,3.94,0,0,1-1.58-1.29,3.6,3.6,0,0,1-.55-2.08,3.79,3.79,0,0,1,.61-2.19,3.86,3.86,0,0,1,1.72-1.4,6.37,6.37,0,0,1,2.61-.49,6.62,6.62,0,0,1,2.67.51,4.11,4.11,0,0,1,1.84,1.52,4.43,4.43,0,0,1,.67,2.53v.6h-2.6v-.6a2.32,2.32,0,0,0-.31-1.29,1.77,1.77,0,0,0-.89-.72,3.63,3.63,0,0,0-1.38-.23,2.84,2.84,0,0,0-1.77.45,1.48,1.48,0,0,0-.57,1.23,1.44,1.44,0,0,0,.27.88,2,2,0,0,0,.81.6,7.14,7.14,0,0,0,1.38.42l.46.1a12.35,12.35,0,0,1,2.61.82,4.27,4.27,0,0,1,1.73,1.32,3.38,3.38,0,0,1,.62,2.1,4,4,0,0,1-.65,2.25,4.42,4.42,0,0,1-1.84,1.52A6.74,6.74,0,0,1,504.32,348.8Z" transform="translate(-398.42 -322.09)"></path>
  <path d="M514.38,348.52v-11.6H510.3v-2.4h10.8v2.4H517v11.6Z" transform="translate(-398.42 -322.09)"></path>
  <path d="M522.5,348.52V346.2h1.84v-9.36H522.5v-2.32h7.2a5.31,5.31,0,0,1,2.23.43,3.37,3.37,0,0,1,1.48,1.22,3.31,3.31,0,0,1,.53,1.89v.2a3.07,3.07,0,0,1-.36,1.57,2.89,2.89,0,0,1-.85.94,4.06,4.06,0,0,1-.93.47v.36a3.69,3.69,0,0,1,1,.45,2.82,2.82,0,0,1,.89.95,3.08,3.08,0,0,1,.37,1.62v.2a3.4,3.4,0,0,1-2,3.26,5.28,5.28,0,0,1-2.21.44Zm4.48-8.24h2.44a2.09,2.09,0,0,0,1.35-.42,1.41,1.41,0,0,0,.53-1.16v-.2a1.39,1.39,0,0,0-.52-1.17,2.1,2.1,0,0,0-1.36-.41H527Zm0,5.84h2.48a2.17,2.17,0,0,0,1.39-.42,1.45,1.45,0,0,0,.53-1.2v-.2a1.44,1.44,0,0,0-.52-1.2,2.16,2.16,0,0,0-1.4-.42H527Z" transform="translate(-398.42 -322.09)"></path>
  <path d="M536.18,348.52v-14h2.64v14Z" transform="translate(-398.42 -322.09)"></path>
  <path d="M541.06,348.52v-3.36l6.92-8v-.32h-6.72v-2.36h9.48v3.36l-6.92,8v.32h7v2.36Z" transform="translate(-398.42 -322.09)"></path>
  <path d="M460.36,358a3.72,3.72,0,0,1-1.94-.47,3,3,0,0,1-1.16-1.29,4.28,4.28,0,0,1-.39-1.87,4.37,4.37,0,0,1,.39-1.89,2.9,2.9,0,0,1,1.14-1.28,3.28,3.28,0,0,1,1.78-.47,3.42,3.42,0,0,1,1.3.24,2.58,2.58,0,0,1,1,.71,2.68,2.68,0,0,1,.58,1.21l-1,.22a1.84,1.84,0,0,0-1.93-1.66,2.12,2.12,0,0,0-1.27.38,2.34,2.34,0,0,0-.81,1,4.17,4.17,0,0,0-.28,1.56,3.87,3.87,0,0,0,.25,1.43,2.17,2.17,0,0,0,.79,1,2.36,2.36,0,0,0,1.42.38,3.45,3.45,0,0,0,1.06-.16,2,2,0,0,0,.9-.64v-1.7l.25.26h-2.61v-.74h3.18v2.46a2.59,2.59,0,0,1-.86.8,3.14,3.14,0,0,1-1,.36A5,5,0,0,1,460.36,358Z" transform="translate(-398.42 -322.09)" style="fill:#666"></path>
  <path d="M466.74,358a2.49,2.49,0,0,1-1.31-.35,2.43,2.43,0,0,1-.88-1,3.38,3.38,0,0,1,0-2.87,2.37,2.37,0,0,1,.88-1,2.49,2.49,0,0,1,1.31-.35,2.47,2.47,0,0,1,1.31.35,2.39,2.39,0,0,1,.89,1,3.48,3.48,0,0,1,0,2.87,2.39,2.39,0,0,1-2.2,1.32Zm0-.69a1.41,1.41,0,0,0,1.18-.55,2.41,2.41,0,0,0,.43-1.52,2.38,2.38,0,0,0-.43-1.51,1.52,1.52,0,0,0-2.36,0,2.44,2.44,0,0,0-.43,1.51,2.47,2.47,0,0,0,.43,1.52A1.41,1.41,0,0,0,466.74,357.26Z" transform="translate(-398.42 -322.09)" style="fill:#666"></path>
  <path d="M473.07,357.83v-7h2.68a2.93,2.93,0,0,1,1.65.42,1.42,1.42,0,0,1,.62,1.24,1.53,1.53,0,0,1-.22.83,1.44,1.44,0,0,1-.57.5,2.09,2.09,0,0,1-.72.23v0a2.26,2.26,0,0,1,1.27.6,1.79,1.79,0,0,1,.5,1.34,1.71,1.71,0,0,1-.33,1.11,1.77,1.77,0,0,1-.86.6,3.7,3.7,0,0,1-1.18.18Zm.87-4.18h1.76a1.82,1.82,0,0,0,1-.25.89.89,0,0,0,.41-.82,1,1,0,0,0-.32-.76,1.46,1.46,0,0,0-1-.3h-1.81Zm0,3.46h2a1.77,1.77,0,0,0,.9-.2,1.11,1.11,0,0,0,.45-.51,1.7,1.7,0,0,0,.13-.64,1.38,1.38,0,0,0-.22-.78,1.47,1.47,0,0,0-.62-.46,2.75,2.75,0,0,0-.95-.15h-1.67Z" transform="translate(-398.42 -322.09)" style="fill:#666"></path>
  <path d="M481.85,358a2.49,2.49,0,0,1-1.3-.34,2.23,2.23,0,0,1-.84-.95,3.34,3.34,0,0,1-.3-1.46,3.38,3.38,0,0,1,.3-1.47,2.23,2.23,0,0,1,.84-1,2.3,2.3,0,0,1,1.27-.34,2.72,2.72,0,0,1,.84.13,2,2,0,0,1,.77.47,2.36,2.36,0,0,1,.57.9,4.28,4.28,0,0,1,.21,1.45h-4.27v-.67h3.56l-.24.31a2.8,2.8,0,0,0-.22-1.11,1.29,1.29,0,0,0-1.23-.8,1.33,1.33,0,0,0-.8.24,1.54,1.54,0,0,0-.52.71,3.15,3.15,0,0,0-.18,1.13,2.51,2.51,0,0,0,.4,1.53,1.36,1.36,0,0,0,1.14.53,1.52,1.52,0,0,0,.9-.26,1.61,1.61,0,0,0,.54-.78l.8.27a2.56,2.56,0,0,1-.51.79,2.12,2.12,0,0,1-.75.49A2.55,2.55,0,0,1,481.85,358Z" transform="translate(-398.42 -322.09)" style="fill:#666"></path>
  <path d="M485.55,359.73v-.68h.8a.17.17,0,0,0,.14-.06.52.52,0,0,0,.09-.17l.38-1.09-.08.37-2.12-5.54h.92l1.68,4.86-.18-.05,1.67-4.81h.91l-2.51,6.58a.95.95,0,0,1-.86.59Z" transform="translate(-398.42 -322.09)" style="fill:#666"></path>
  <path d="M492.82,358a2.39,2.39,0,0,1-2.2-1.32,3.48,3.48,0,0,1,0-2.87,2.39,2.39,0,0,1,.89-1,2.47,2.47,0,0,1,1.31-.35,2.49,2.49,0,0,1,1.31.35,2.37,2.37,0,0,1,.88,1,3.38,3.38,0,0,1,0,2.87,2.43,2.43,0,0,1-.88,1A2.49,2.49,0,0,1,492.82,358Zm0-.69a1.42,1.42,0,0,0,1.18-.55,2.47,2.47,0,0,0,.43-1.52,2.44,2.44,0,0,0-.43-1.51,1.52,1.52,0,0,0-2.36,0,2.38,2.38,0,0,0-.43,1.51,2.41,2.41,0,0,0,.43,1.52A1.41,1.41,0,0,0,492.82,357.26Z" transform="translate(-398.42 -322.09)" style="fill:#666"></path>
  <path d="M496.55,357.83v-5.27h.77v1.19l0-.22a1.94,1.94,0,0,1,.66-.77,1.91,1.91,0,0,1,1.11-.32,1.76,1.76,0,0,1,1,.25,1.62,1.62,0,0,1,.63.71,2.53,2.53,0,0,1,.22,1.11v3.32h-.82v-3.26a1.86,1.86,0,0,0-.27-1.05,1,1,0,0,0-.87-.4,1.41,1.41,0,0,0-1.1.5,2.17,2.17,0,0,0-.44,1.45v2.76Z" transform="translate(-398.42 -322.09)" style="fill:#666"></path>
  <path d="M504.25,358a2,2,0,0,1-1.13-.34,2.19,2.19,0,0,1-.77-1,3.62,3.62,0,0,1-.27-1.46,3.46,3.46,0,0,1,.28-1.46,2.16,2.16,0,0,1,.76-1,2,2,0,0,1,1.13-.33,2.27,2.27,0,0,1,1,.26,1.62,1.62,0,0,1,.77.87l-.09,0v-3.1h.82v7.32H506v-1.1l0,.08a1.6,1.6,0,0,1-.71.86A2.21,2.21,0,0,1,504.25,358Zm.21-.69a1.43,1.43,0,0,0,.76-.21,1.49,1.49,0,0,0,.55-.67,3,3,0,0,0,.2-1.17,2.4,2.4,0,0,0-.44-1.58,1.34,1.34,0,0,0-1.06-.51,1.3,1.3,0,0,0-1.07.54,3.06,3.06,0,0,0,0,3.06A1.28,1.28,0,0,0,504.46,357.26Z" transform="translate(-398.42 -322.09)" style="fill:#666"></path>
  <path d="M509,358a.71.71,0,0,1-.53-.22.76.76,0,0,1,0-1.05.75.75,0,0,1,1.06,0,.76.76,0,0,1,0,1.05A.71.71,0,0,1,509,358Z" transform="translate(-398.42 -322.09)" style="fill:#666"></path>
  <path d="M402.56,364.47a3,3,0,0,0,0,.78c.61,5.92,18.55-8.36,23.12-18.31l-.69-.38-2.27-1.26,8.34-2.77c-.35.68-.93,1.65-1.84,3.23a53.86,53.86,0,0,1-9.6,12.62c-4.64,4.27-10.29,7.53-14,8.41a5.12,5.12,0,0,1-2.53.13,1,1,0,0,1-.76-1,3.78,3.78,0,0,1,.24-1.47Z" transform="translate(-398.42 -322.09)" style="fill:#0b4bd3;fill-rule:evenodd"></path>
  <path d="M431.61,342.72l.79,3.8,1,4.81-2.27-1.27-.77-.42c-17.64,22.48-32.81,22.22-29.59,14.5a4.52,4.52,0,0,0-.23,1.69,2.17,2.17,0,0,0,1.63,2.06,6.18,6.18,0,0,0,3.2-.1c3.88-.93,9.76-4.31,14.54-8.7,6.25-5.74,10.49-13.88,11.7-16.37Z" transform="translate(-398.42 -322.09)" style="fill:#0b4bd3;fill-rule:evenodd"></path>
  <path d="M443.9,331.29a3.33,3.33,0,0,0,.18-.76c.61-5.92-19.87,4.38-26.38,13.18l.6.51,2,1.71-8.74,1c.49-.6,1.26-1.43,2.47-2.79a53.81,53.81,0,0,1,12-10.38c5.41-3.23,11.61-5.26,15.41-5.37a5.07,5.07,0,0,1,2.51.4,1,1,0,0,1,.54,1.11,3.74,3.74,0,0,1-.54,1.39Z" transform="translate(-398.42 -322.09)" style="fill:#ff5001;fill-rule:evenodd"></path>
  <path d="M411,346.62v-8.79l2,1.7.66.58c21.88-18.39,36.67-15,31.94-8.13a4.77,4.77,0,0,0,.57-1.6A2.19,2.19,0,0,0,445,328a6.2,6.2,0,0,0-3.15-.56c-4,.12-10.43,2.22-16,5.54-7.29,4.34-13.1,11.43-14.8,13.62Z" transform="translate(-398.42 -322.09)" style="fill:#ff5001;fill-rule:evenodd"></path>
  <path d="M441.14,330.61a24,24,0,0,1-29.38,37.51l.33-.16a44.54,44.54,0,0,0,9.05-6.23,121.4,121.4,0,0,0,10.19-10.59c-2,5.87-9.94,14.26-13.43,16.63a21.25,21.25,0,0,0,20.21-36.2l.24-.09a20.6,20.6,0,0,1,2.79-.87Z" transform="translate(-398.42 -322.09)" style="fill:#ff5001;fill-rule:evenodd"></path>
  <path d="M441.14,330.61c-6.52,1.68-13.35,5.88-18.41,10.21a108.94,108.94,0,0,1,19.59-8.9l-1.18-1.31Z" transform="translate(-398.42 -322.09)" style="fill:#ff5001;fill-rule:evenodd"></path>
  <path d="M419.23,322.31a23.85,23.85,0,0,1,15.27,3,38.79,38.79,0,0,0-3.73,1.24,21.25,21.25,0,0,0-24,33.84,132,132,0,0,0,17-14c-.39.59-2.46,3.71-2.88,4.26a51.46,51.46,0,0,1-4.32,5q-2.18,2.22-4.56,4.22a44,44,0,0,1-4.41,3.26c-.4.25-.83.51-1.27.76a24,24,0,0,1,12.9-41.63Z" transform="translate(-398.42 -322.09)" style="fill:#0b4bd3;fill-rule:evenodd"></path>
  <path d="M432.48,324.57C426,326.24,420,330,415,334.29a108.31,108.31,0,0,1,19.59-8.9c-.4-.43-1.68-.38-2.07-.82Z" transform="translate(-398.42 -322.09)" style="fill:#0b4bd3;fill-rule:evenodd"></path>
</svg>
